<?xml version="1.0" encoding="utf-8"?>
<!-- Generator: Adobe Illustrator 27.9.0, SVG Export Plug-In . SVG Version: 6.00 Build 0)  -->
<svg version="1.1" id="Layer_1" xmlns="http://www.w3.org/2000/svg" xmlns:xlink="http://www.w3.org/1999/xlink" x="0px" y="0px"
	 viewBox="0 0 1920 1080" style="enable-background:new 0 0 1920 1080;" xml:space="preserve">
<style type="text/css">
	.st0{fill:#CE2028;}
	.st1{fill:#383838;}
	.st2{fill:#E21E26;}
</style>
<g>
	<path class="st0" d="M498.5,584.02c-13.08-36.69-13.03-73.19-0.55-110.1c-36.98,12.48-73.47,12.48-110.74-0.71
		c0.55,2.8,0.83,4.63,1.27,6.43c9.82,40.25,2.67,77.21-23.04,109.7c-10.11,12.79-22.55,23.74-33.99,35.47
		c-6.36,6.52-12.85,12.91-19.3,19.34c-1.06,1.05-2.21,2.02-3.94,3.58c-0.14-2.29-0.29-3.75-0.31-5.21
		c-0.66-44.69-1.04-89.39-2.21-134.07c-0.22-8.63,2.13-14.42,8.25-20.36c23.71-23.04,46.9-46.61,70.2-70.05
		c2.25-2.27,4.64-3.19,7.8-3.18c53.39,0.05,106.79,0.06,160.18-0.06c4.15-0.01,5.14,1.44,5.13,5.37
		c-0.11,53.11-0.1,106.23-0.02,159.34c0,3.16-0.86,5.47-3.14,7.75c-25.6,25.49-51.08,51.09-76.69,76.58
		c-1.23,1.23-3.35,2.25-5.04,2.23c-48.76-0.65-97.51-1.45-146.27-2.23c-0.4-0.01-0.8-0.14-1.89-0.34c1.22-1.36,2.13-2.49,3.15-3.5
		c14.95-14.96,29.56-30.29,44.94-44.79c33.84-31.91,73.61-42.7,119.03-31.96c1.63,0.39,3.27,0.78,4.91,1.11
		C496.61,584.4,497.03,584.23,498.5,584.02z"/>
	<g>
		<path class="st1" d="M729.94,540.71l-33.13,3.9c-3.25-10.61-9.31-17.97-22.74-17.97c-16.89,0-25.77,13.64-25.77,35.73
			c0,22.09,9.31,35.73,27.07,35.73c16.46,0,23.82-9.31,26.2-25.77l33.13,3.68c-4.76,32.05-24.03,49.15-59.33,49.15
			c-38.54,0-60.63-22.95-60.63-62.79c0-39.84,21.65-62.79,59.54-62.79C704.61,499.57,723.02,513.64,729.94,540.71z"/>
		<path class="st1" d="M825.21,459.12c12.56,0,20.57,6.28,20.57,17.54c0,11.04-8.01,17.54-20.57,17.54
			c-12.34,0-20.35-6.5-20.35-17.54C804.86,465.4,812.87,459.12,825.21,459.12z M842.32,621.73h-34.21V502.64h34.21V621.73z"/>
		<path class="st1" d="M974.61,540.71l-33.13,3.9c-3.25-10.61-9.31-17.97-22.74-17.97c-16.89,0-25.77,13.64-25.77,35.73
			c0,22.09,9.31,35.73,27.07,35.73c16.46,0,23.82-9.31,26.2-25.77l33.13,3.68c-4.76,32.05-24.03,49.15-59.33,49.15
			c-38.54,0-60.63-22.95-60.63-62.79c0-39.84,21.65-62.79,59.54-62.79C949.28,499.57,967.68,513.64,974.61,540.71z"/>
		<path class="st1" d="M1106.69,502.82l-21.44,37.89c-9.31,17.11-21.22,16.89-40.06,16.24v5.85c5.41-0.43,10.18-0.87,14.29-0.87
			c9.53,0,15.81,1.73,20.57,7.36c2.6,2.6,4.55,5.85,6.93,9.96c8.44,16.67,11.48,26.63,22.3,42.66h-36.59
			c-7.79-12.56-9.74-21.44-15.59-35.08c-4.33-9.09-7.79-10.61-20.57-10.61h-7.36v45.69h-33.56V459.51h33.56v88.99h4.76
			c10.61,0,13.42-2.38,17.75-10.39l19.27-35.29H1106.69z"/>
		<path class="st2" d="M1138.95,459.29c12.56,0,20.57,6.28,20.57,17.54c0,11.04-8.01,17.54-20.57,17.54
			c-12.34,0-20.35-6.5-20.35-17.54C1118.6,465.57,1126.61,459.29,1138.95,459.29z M1156.06,621.9h-34.21V502.82h34.21V621.9z"/>
		<path class="st2" d="M1294.41,552.83l0.22,69.07h-34.43v-64.96c0-19.27-8.01-28.36-23.38-28.36c-15.16,0-23.17,8.23-24.47,29.45
			v63.87h-34.43V502.82h34.43c0,14.94-5.41,30.96-10.83,43.52l5.85,1.73c4.11-24.03,14.29-48.5,42.87-48.5
			C1277.96,499.57,1294.41,520.35,1294.41,552.83z"/>
		<path class="st1" d="M1349.84,603.93c0,12.77-7.58,19.92-19.7,19.92c-12.13,0-19.92-7.15-19.92-19.92
			c0-12.77,7.79-19.92,19.92-19.92C1342.26,584.01,1349.84,591.16,1349.84,603.93z"/>
		<path class="st1" d="M1414.15,567.77c5.2,17.11,5.63,26.63,4.33,43.3h5.85c-1.52-16.67-1.08-26.2,4.11-43.3l21.22-64.96h35.08
			l-39.41,119.09h-48.29l-39.19-119.09h35.08L1414.15,567.77z"/>
		<path class="st1" d="M1613.78,552.83l0.22,69.07h-34.43v-64.96c0-19.27-8.01-28.36-23.38-28.36c-15.16,0-23.17,8.23-24.47,29.45
			v63.87h-34.43V502.82h34.43c0,14.94-5.41,30.96-10.83,43.52l5.85,1.73c4.11-24.03,14.29-48.5,42.87-48.5
			C1597.33,499.57,1613.78,520.35,1613.78,552.83z"/>
		<rect x="752.54" y="459.51" class="st1" width="33.56" height="162.39"/>
	</g>
</g>
</svg>
